<?xml version="1.0" encoding="UTF-8"?>
<svg enable-background="new 0 0 712 860" version="1.1" viewBox="0 0 712 860" xml:space="preserve" xmlns="http://www.w3.org/2000/svg"><path d="m684 678c-0.01-0.01-0.02-0.02-0.02-0.03-6-7-9-20-12-33-3-14-7-28-18-38-0.02-0.02-0.05-0.04-0.07-0.06-2-2-4-4-7-5-2-1-5-2-7-3 15-46 9-91-6-132-19-51-52-95-78-125-29-36-56-70-56-121 0.8-77 8-220-127-220-6-0.01-11 0.2-17 0.7-151 12-111 172-114 226-3 39-11 70-38 108-32 38-76 99-97 162-10 30-15 60-10 89-1 1-3 3-4 4-9 10-16 22-24 30-7 7-17 10-29 14-11 4-23 10-31 24 0 0 0 0.01-0.01 0.01-0.01 0.02-0.02 0.05-0.04 0.07-4 7-5 14-5 21 0 7 1 13 2 20 2 13 4 26 1 35-9 24-10 41-4 53 6 12 19 18 34 21 29 6 68 5 99 21l3-5-3 5c33 17 67 24 94 17 19-4 35-16 43-34 21-0.1 44-9 81-11 25-2 56 9 92 7 0.9 4 2 8 4 11 0.02 0.03 0.04 0.07 0.06 0.1 14 28 40 41 68 38 28-2 57-18 81-47l-4-4 4 4c23-27 60-39 85-54 12-8 23-17 23-31 0.8-14-7-29-26-49z" fill="#202020"/><g fill="#f8bf11"><path d="m698 727c-0.5 8-7 15-18 22-23 14-63 25-88 56-22 26-49 41-73 43s-44-8-56-32l-0.05-0.1c-8-14-4-37 2-61 6-24 15-48 17-68v-0.06c1-25 3-48 7-65 4-17 11-29 23-35 0.6-0.3 1-0.6 2-0.9 1 22 12 45 32 49 21 6 52-13 64-27 3-0.1 5-0.2 8-0.3 11-0.3 21 0.4 30 9l0.06 0.05c7 6 11 18 14 31 3 13 6 28 15 38l0.01 0.01 0.01 0.02c18 20 23 33 23 41z"/><path d="m269 789-0.01 0.06v0.07c-2 27-17 41-40 47-23 5-55 0.02-86-16-0.01 0-0.02-0.01-0.03-0.01-35-18-76-17-102-22-13-3-22-7-26-15-4-8-4-21 4-44l0.04-0.1 0.03-0.1c4-13 1-27-0.9-40-2-13-3-25 2-34l0.04-0.08c6-11 14-15 25-19 11-4 23-7 33-17l0.1-0.1c9-10 16-22 24-30 7-7 13-12 24-12 0.1 0.01 0.2 0.01 0.4 0 2 0.01 4 0.2 6 0.5 14 2 25 11 37 27l33 60 0.01 0.03 0.02 0.02c9 18 27 38 43 59 16 20 28 41 26 57z"/><path d="m433 233c-3-5-8-10-17-14l-0.05-0.02c-19-8-27-9-38-16-17-11-32-15-43-15-6 0.02-12 1-17 3-14 5-24 15-30 21l-0.01 0.01c0 0.01-0.01 0.01-0.01 0.02-1 1-3 2-6 5-4 3-9 7-17 13-7 5-9 12-7 20 2 8 10 18 25 26l0.02 0.02 0.03 0.01c9 5 15 12 22 18 3 3 7 5 12 7s10 3 16 4c15 0.9 26-4 36-9 10-6 18-13 28-16l0.04-0.02c20-6 34-19 38-30 2-6 2-11-0.5-17z"/></g><path d="m383 262c-16 8-34 18-53 18-19 0-35-9-46-18-6-4-10-9-13-12-6-5-5-11-3-11 4 0.5 5 6 7 8 3 3 8 7 13 12 10 8 24 16 42 16 17 0 38-10 50-17 7-4 16-11 23-16 6-4 5-9 10-8 5 0.5 1 5-5 11-6 6-17 13-25 17z" fill="#202020"/><path d="m622 595c-2-0.08-4-0.07-6-0.02-0.2 0.01-0.4 0.01-0.6 0.01 5-17-7-29-38-44-33-14-59-13-63 16-0.3 2-0.5 3-0.7 5-2 0.9-5 2-7 3-15 8-24 24-29 43-5 19-6 41-7 67v0.02c-0.8 13-6 30-11 49-54 38-128 55-192 12-4-7-9-14-14-20-3-4-7-8-10-13 6 0.01 12-1 16-3 6-3 9-7 11-12 4-10-0.02-25-12-42-12-17-33-36-64-55v-0.01c-23-14-35-31-41-50-6-19-5-39-0.5-59 9-38 31-76 46-99 4-3 1 5-15 35-14 27-41 89-4 138 1-35 9-70 23-103 20-46 63-125 66-189 2 1 8 5 10 7 0.01 0.01 0.01 0.01 0.02 0.01 8 5 14 11 21 17 8 6 17 11 31 12 1 0.08 3 0.1 4 0.1 15 0 26-5 36-10 10-6 19-13 27-15 0.01-0.01 0.02-0.01 0.03-0.01 17-5 30-14 37-25 13 51 43 124 62 160 10 19 31 60 40 108 6-0.2 12 0.6 18 2 23-60-20-124-39-142-8-8-8-11-4-11 21 19 49 56 59 99 5 19 6 40 0.6 60 2 1 5 2 7 3 37 18 51 34 44 55z" fill="#fff"/><path d="m358 434a170 252 0 0 0-158 160l4 2v0.2c29 18 49 37 62 54v2e-3h2e-3c13 18 19 36 14 51l-4e-3 0.01c-3 8-9 14-17 17l-0.03 0.01c-0.8 0.4-2 0.6-2 0.9 5 6 9 12 13 18 58 39 125 24 176-11 5-17 9-33 10-43 1-26 3-49 8-69v-2e-3c5-20 15-39 33-49l0.01-6e-3 0.01-6e-3c1-0.6 2-0.9 3-1 0.3-2 0.8-4 1-6a170 252 0 0 0-147-126zm146 132-0.05 0.3c5e-3 -0.04 0.02-0.07 0.02-0.1 0.01-0.07 0.02-0.1 0.03-0.2z" color="#000000" color-rendering="auto" fill="#e6e6e6" image-rendering="auto" shape-rendering="auto" style="isolation:auto;mix-blend-mode:normal"/><path d="m435 174c0.08 10-2 19-5 27-2 5-5 9-8 13-1-0.5-2-1-3-1-4-2-7-3-10-4-3-1-5-2-8-3 2-2 5-5 7-8 2-5 3-9 3-15 0-0.2 0.07-0.4 0.07-0.7 0.1-5-0.6-10-2-14-2-5-4-8-7-11-3-3-6-4-10-4-0.2-0.01-0.3-0.01-0.5-0.01-3 0.01-6 1-9 4-3 3-6 6-7 11-2 5-3 9-3 15-0.03 0.2-0.03 0.4-0.03 0.6-0.07 3 0.1 6 0.6 9-7-3-16-6-22-7-0.4-3-0.6-5-0.6-8v-0.8c-0.1-10 2-19 5-27 4-9 9-15 15-20 7-5 13-7 21-8h0.4c8 0 14 2 21 7 7 5 12 11 16 20 4 8 6 17 6 27-1e-3 0.3-1e-3 0.5 0.07 0.7z" fill="#fff"/><path d="m318 184c-1 0.3-2 0.6-3 0.9-6 2-10 4-14 7 0.4-3 0.5-6 0.2-9-0.03-0.2-0.03-0.3-0.03-0.5-0.4-4-1-8-3-12-2-4-4-7-6-9-2-2-4-3-7-3-0.2 0-0.5 0.01-0.7 0.03-3 0.2-5 1-7 4-2 2-3 6-4 10-1 4-1 8-0.8 13 0 0.2 0.04 0.3 0.04 0.5 0.4 4 1 8 3 12 2 4 4 7 6 9 0.4 0.4 0.8 0.7 1 1-3 2-4 3-6 5-1 1-3 2-5 3-4-4-7-8-10-15-3-7-5-15-5-23v-0.07c-0.5-9 0.4-16 3-24 2-8 6-13 10-18 5-5 9-7 15-7 0.4-0.02 0.9-0.03 1-0.03 5 0.01 10 2 14 5 5 4 9 9 12 17 3 7 5 15 5 23v0.07c0.2 4 0.2 7-0.09 10z" fill="#fff"/><path d="m344 205c0.6 2 4 2 6 3 2 0.9 3 3 5 3 2 0.05 5-0.6 5-2 0.3-2-3-4-5-5-3-1-7-2-9-0.2-0.6 0.3-1 1-1 2z" fill="#202020"/><path d="m324 205c-0.6 2-4 2-6 3-2 0.9-3 3-5 3-2 0.05-5-0.6-5-2-0.3-2 3-4 5-5 3-1 7-2 9-0.2 0.6 0.3 1 1 1 2z" fill="#202020"/></svg>
